<svg id="visual" viewBox="0 0 900 500" width="900" height="500" xmlns="http://www.w3.org/2000/svg" xmlns:xlink="http://www.w3.org/1999/xlink" version="1.1"><rect x="0" y="0" width="900" height="500" fill="#edf2fc"></rect><path d="M0 333L37.5 321C75 309 150 285 225 264.7C300 244.3 375 227.7 450 229.2C525 230.7 600 250.3 675 245C750 239.7 825 209.3 862.5 194.2L900 179L900 501L862.5 501C825 501 750 501 675 501C600 501 525 501 450 501C375 501 300 501 225 501C150 501 75 501 37.5 501L0 501Z" fill="#000000" stroke-linecap="round" stroke-linejoin="miter"></path></svg>